<!DOCTYPE svg PUBLIC "-//W3C//DTD SVG 1.1//EN" "http://www.w3.org/Graphics/SVG/1.1/DTD/svg11.dtd">
<!-- Uploaded to: SVG Repo, www.svgrepo.com, Transformed by: SVG Repo Mixer Tools -->
<svg fill="#5e5e5e" width="800px" height="800px" viewBox="0 0 24 24" version="1.2" baseProfile="tiny" xmlns="http://www.w3.org/2000/svg">
<g id="SVGRepo_bgCarrier" stroke-width="0"/>
<g id="SVGRepo_tracerCarrier" stroke-linecap="round" stroke-linejoin="round"/>
<g id="SVGRepo_iconCarrier">
<path d="M12 4c-4.419 0-8 3.582-8 8s3.581 8 8 8 8-3.582 8-8-3.581-8-8-8zm3.707 10.293c.391.391.391 1.023 0 1.414-.195.195-.451.293-.707.293s-.512-.098-.707-.293l-2.293-2.293-2.293 2.293c-.195.195-.451.293-.707.293s-.512-.098-.707-.293c-.391-.391-.391-1.023 0-1.414l2.293-2.293-2.293-2.293c-.391-.391-.391-1.023 0-1.414s1.023-.391 1.414 0l2.293 2.293 2.293-2.293c.391-.391 1.023-.391 1.414 0s.391 1.023 0 1.414l-2.293 2.293 2.293 2.293z"/>
</g>
</svg>