<!DOCTYPE svg PUBLIC "-//W3C//DTD SVG 1.1//EN" "http://www.w3.org/Graphics/SVG/1.1/DTD/svg11.dtd">
<!-- Uploaded to: SVG Repo, www.svgrepo.com, Transformed by: SVG Repo Mixer Tools -->
<svg width="800px" height="800px" viewBox="0 0 24 24" xmlns="http://www.w3.org/2000/svg" id="double-down-sign" class="icon glyph" fill="#000000">
<g id="SVGRepo_bgCarrier" stroke-width="0"/>
<g id="SVGRepo_tracerCarrier" stroke-linecap="round" stroke-linejoin="round"/>
<g id="SVGRepo_iconCarrier">
<path d="M2.13,4.51a1,1,0,0,1,1.36-.38L12,8.86l8.51-4.73a1,1,0,0,1,1,1.74l-9,5a.94.94,0,0,1-.15.06l-.09,0A1,1,0,0,1,12,11h0a1,1,0,0,1-.25,0l-.09,0a.94.94,0,0,1-.15-.06l-9-5A1,1,0,0,1,2.13,4.51Zm18.38,8.62L12,17.86,3.49,13.13a1,1,0,0,0-1,1.74l9,5,.15.06.09,0A1,1,0,0,0,12,20h0a1,1,0,0,0,.25,0l.09,0,.15-.06,9-5a1,1,0,1,0-1-1.74Z" style="fill:#ffffff"/>
</g>
</svg>