<!DOCTYPE svg PUBLIC "-//W3C//DTD SVG 1.1//EN" "http://www.w3.org/Graphics/SVG/1.1/DTD/svg11.dtd">
<!-- Uploaded to: SVG Repo, www.svgrepo.com, Transformed by: SVG Repo Mixer Tools -->
<svg fill="#ffffff" version="1.1" id="Capa_1" xmlns="http://www.w3.org/2000/svg" xmlns:xlink="http://www.w3.org/1999/xlink" width="800px" height="800px" viewBox="0 0 310.42 310.42" xml:space="preserve" transform="rotate(0)matrix(-1, 0, 0, 1, 0, 0)" stroke="#ffffff">
<g id="SVGRepo_bgCarrier" stroke-width="0"/>
<g id="SVGRepo_tracerCarrier" stroke-linecap="round" stroke-linejoin="round"/>
<g id="SVGRepo_iconCarrier"> <g> <g> <path d="M273.586,36.833c-49.11-49.111-129.02-49.111-178.131,0C53.792,78.498,47.482,140.462,76.509,188.85 c0,0,2.085,3.498-0.731,6.312c-16.065,16.064-64.263,64.263-64.263,64.263c-12.791,12.79-15.836,30.675-4.493,42.02l1.953,1.951 c11.343,11.345,29.229,8.301,42.019-4.49c0,0,48.096-48.097,64.128-64.128c2.951-2.951,6.448-0.866,6.448-0.866 c48.386,29.026,110.352,22.718,152.016-18.946C322.698,165.854,322.698,85.944,273.586,36.833z M250.331,191.71 c-36.288,36.287-95.331,36.287-131.619,0c-36.288-36.288-36.287-95.332,0-131.62c36.288-36.287,95.333-36.288,131.619,0 C286.62,96.377,286.62,155.422,250.331,191.71z"/> <path d="M213.182,82.8c-16.054,0-26.239,17.898-28.649,17.898c-2.107,0-11.876-17.898-28.651-17.898 c-16.318,0-29.64,13.457-30.512,29.751c-0.492,9.205,2.475,16.209,6.657,22.555c8.353,12.676,44.879,43.192,52.56,43.192 c7.847,0,44.043-30.406,52.451-43.192c4.19-6.374,7.148-13.35,6.657-22.555C242.823,96.256,229.5,82.8,213.182,82.8z"/> </g> </g> </g>
</svg>