<?xml version="1.0" encoding="UTF-8" standalone="no" ?>
<!DOCTYPE svg PUBLIC "-//W3C//DTD SVG 1.1//EN" "http://www.w3.org/Graphics/SVG/1.1/DTD/svg11.dtd">
<svg xmlns="http://www.w3.org/2000/svg" xmlns:xlink="http://www.w3.org/1999/xlink" version="1.1" width="800" height="800" viewBox="0 0 800 800" xml:space="preserve">
<desc>Created with Fabric.js 5.3.0</desc>
<defs>
</defs>
<g transform="matrix(1.5625 0 0 1.5625 400 400)" id="2x19TYm3uKALPtkb5_yuU"  >
<path style="stroke: none; stroke-width: 1; stroke-dasharray: none; stroke-linecap: butt; stroke-dashoffset: 0; stroke-linejoin: miter; stroke-miterlimit: 4; fill: rgb(255,255,255); fill-rule: nonzero; opacity: 1;"  transform=" translate(-256.000299635, -256)" d="M 283.211 512 C 362.173 512 434.29 476.075 482.068 417.20799999999997 C 489.13599999999997 408.49999999999994 481.429 395.77799999999996 470.506 397.85799999999995 C 346.303 421.51199999999994 232.24399999999997 326.2819999999999 232.24399999999997 200.90399999999994 C 232.24399999999997 128.68199999999996 270.90599999999995 62.26899999999995 333.74199999999996 26.509999999999934 C 343.42799999999994 20.997999999999934 340.99199999999996 6.312999999999935 329.986 4.279999999999934 C 314.55678462308026 1.4349311576404022 298.9003307188888 0.002336337545449929 283.211 -6.750155989720952e-14 C 141.90200000000002 0 27.211000000000013 114.511 27.211000000000013 256 C 27.211000000000013 397.30899999999997 141.722 512 283.211 512 z" stroke-linecap="round" />
</g>
</svg>